<svg width="20" height="20" viewBox="0 0 20 20" fill="none" xmlns="http://www.w3.org/2000/svg">
<path d="M14.5416 18.9584C13.6 18.9584 12.6083 18.7334 11.5833 18.3001C10.5833 17.8751 9.57496 17.2917 8.59163 16.5834C7.61663 15.8667 6.67496 15.0667 5.78329 14.1917C4.89996 13.3001 4.09996 12.3584 3.39163 11.3917C2.67496 10.3917 2.09996 9.39175 1.69163 8.42508C1.25829 7.39175 1.04163 6.39175 1.04163 5.45008C1.04163 4.80008 1.15829 4.18341 1.38329 3.60841C1.61663 3.01675 1.99163 2.46675 2.49996 1.99175C3.14163 1.35841 3.87496 1.04175 4.65829 1.04175C4.98329 1.04175 5.31663 1.11675 5.59996 1.25008C5.92496 1.40008 6.19996 1.62508 6.39996 1.92508L8.33329 4.65008C8.50829 4.89175 8.64163 5.12508 8.73329 5.35841C8.84163 5.60841 8.89996 5.85841 8.89996 6.10008C8.89996 6.41675 8.80829 6.72508 8.63329 7.01675C8.50829 7.24175 8.31663 7.48342 8.07496 7.72508L7.50829 8.31675C7.51663 8.34175 7.52496 8.35841 7.53329 8.37508C7.63329 8.55008 7.83329 8.85008 8.21663 9.30008C8.62496 9.76675 9.00829 10.1917 9.39163 10.5834C9.88329 11.0667 10.2916 11.4501 10.675 11.7667C11.15 12.1667 11.4583 12.3667 11.6416 12.4584L11.625 12.5001L12.2333 11.9001C12.4916 11.6417 12.7416 11.4501 12.9833 11.3251C13.4416 11.0417 14.025 10.9917 14.6083 11.2334C14.825 11.3251 15.0583 11.4501 15.3083 11.6251L18.075 13.5917C18.3833 13.8001 18.6083 14.0667 18.7416 14.3834C18.8666 14.7001 18.925 14.9917 18.925 15.2834C18.925 15.6834 18.8333 16.0834 18.6583 16.4584C18.4833 16.8334 18.2666 17.1584 17.9916 17.4584C17.5166 17.9834 17 18.3584 16.4 18.6001C15.825 18.8334 15.2 18.9584 14.5416 18.9584ZM4.65829 2.29175C4.19996 2.29175 3.77496 2.49175 3.36663 2.89175C2.98329 3.25008 2.71663 3.64175 2.54996 4.06675C2.37496 4.50008 2.29163 4.95841 2.29163 5.45008C2.29163 6.22508 2.47496 7.06675 2.84163 7.93341C3.21663 8.81675 3.74163 9.73341 4.40829 10.6501C5.07496 11.5667 5.83329 12.4584 6.66663 13.3001C7.49996 14.1251 8.39996 14.8917 9.32496 15.5667C10.225 16.2251 11.15 16.7584 12.0666 17.1417C13.4916 17.7501 14.825 17.8917 15.925 17.4334C16.35 17.2584 16.725 16.9917 17.0666 16.6084C17.2583 16.4001 17.4083 16.1751 17.5333 15.9084C17.6333 15.7001 17.6833 15.4834 17.6833 15.2667C17.6833 15.1334 17.6583 15.0001 17.5916 14.8501C17.5666 14.8001 17.5166 14.7084 17.3583 14.6001L14.5916 12.6334C14.425 12.5167 14.275 12.4334 14.1333 12.3751C13.95 12.3001 13.875 12.2251 13.5916 12.4001C13.425 12.4834 13.275 12.6084 13.1083 12.7751L12.475 13.4001C12.15 13.7167 11.65 13.7917 11.2666 13.6501L11.0416 13.5501C10.7 13.3667 10.3 13.0834 9.85829 12.7084C9.45829 12.3667 9.02496 11.9667 8.49996 11.4501C8.09163 11.0334 7.68329 10.5917 7.25829 10.1001C6.86663 9.64175 6.58329 9.25008 6.40829 8.92508L6.30829 8.67508C6.25829 8.48341 6.24163 8.37508 6.24163 8.25841C6.24163 7.95841 6.34996 7.69175 6.55829 7.48341L7.18329 6.83341C7.34996 6.66675 7.47496 6.50841 7.55829 6.36675C7.62496 6.25841 7.64996 6.16675 7.64996 6.08341C7.64996 6.01675 7.62496 5.91675 7.58329 5.81675C7.52496 5.68341 7.43329 5.53341 7.31663 5.37508L5.38329 2.64175C5.29996 2.52508 5.19996 2.44175 5.07496 2.38341C4.94163 2.32508 4.79996 2.29175 4.65829 2.29175ZM11.625 12.5084L11.4916 13.0751L11.7166 12.4917C11.675 12.4834 11.6416 12.4917 11.625 12.5084Z" fill="white"/>
</svg>
