<svg width="36" height="37" viewBox="0 0 36 37" fill="none" xmlns="http://www.w3.org/2000/svg">
<rect y="0.393066" width="36" height="36" rx="8" fill="#0C0E0D"/>
<path fill-rule="evenodd" clip-rule="evenodd" d="M9 18.3931C9 14.7979 9 13.0004 9.85669 11.7056C10.2392 11.1275 10.7344 10.6323 11.3126 10.2498C12.6073 9.39307 14.4049 9.39307 18 9.39307C21.5951 9.39307 23.3927 9.39307 24.6874 10.2498C25.2656 10.6323 25.7608 11.1275 26.1433 11.7056C27 13.0004 27 14.7979 27 18.3931C27 21.9882 27 23.7858 26.1433 25.0805C25.7608 25.6587 25.2656 26.1538 24.6874 26.5364C23.3927 27.3931 21.5951 27.3931 18 27.3931C14.4049 27.3931 12.6073 27.3931 11.3126 26.5364C10.7344 26.1538 10.2392 25.6587 9.85669 25.0805C9 23.7858 9 21.9882 9 18.3931ZM22.6593 18.3933C22.6593 20.9666 20.5732 23.0527 17.9998 23.0527C15.4265 23.0527 13.3404 20.9666 13.3404 18.3933C13.3404 15.82 15.4265 13.7339 17.9998 13.7339C20.5732 13.7339 22.6593 15.82 22.6593 18.3933ZM17.9998 21.4763C19.7025 21.4763 21.0828 20.096 21.0828 18.3933C21.0828 16.6906 19.7025 15.3103 17.9998 15.3103C16.2971 15.3103 14.9168 16.6906 14.9168 18.3933C14.9168 20.096 16.2971 21.4763 17.9998 21.4763ZM22.8433 14.5946C23.4479 14.5946 23.9381 14.1044 23.9381 13.4998C23.9381 12.8951 23.4479 12.405 22.8433 12.405C22.2386 12.405 21.7485 12.8951 21.7485 13.4998C21.7485 14.1044 22.2386 14.5946 22.8433 14.5946Z" fill="white"/>
</svg>
