<svg width="36" height="37" viewBox="0 0 36 37" fill="none" xmlns="http://www.w3.org/2000/svg">
<rect y="0.393066" width="36" height="36" rx="8" fill="#0C0E0D"/>
<path d="M21.0271 11.0944V11.0912H21.8711L22.1794 11.1528C22.385 11.1928 22.5717 11.2452 22.7394 11.31C22.9071 11.3748 23.0694 11.4505 23.2263 11.5369C23.3832 11.6234 23.5255 11.7114 23.6532 11.8011C23.7798 11.8897 23.8934 11.9837 23.9941 12.0831C24.0936 12.1836 24.2489 12.2096 24.4599 12.1609C24.6709 12.1123 24.8981 12.0448 25.1416 11.9583C25.385 11.8719 25.6258 11.7746 25.8638 11.6666C26.1019 11.5585 26.2469 11.4899 26.2988 11.4607C26.3497 11.4305 26.3768 11.4143 26.38 11.4121L26.3832 11.4073L26.3995 11.3991L26.4157 11.391L26.4319 11.3829L26.4482 11.3748L26.4514 11.37L26.4563 11.3667L26.4612 11.3635L26.4644 11.3586L26.4806 11.3538L26.4968 11.3505L26.4936 11.3748L26.4887 11.3991L26.4806 11.4235L26.4725 11.4478L26.4644 11.464L26.4563 11.4802L26.4482 11.5045C26.4427 11.5207 26.4373 11.5423 26.4319 11.5693C26.4265 11.5964 26.3751 11.7044 26.2777 11.8935C26.1803 12.0826 26.0586 12.2744 25.9125 12.4689C25.7665 12.6634 25.6355 12.8103 25.5198 12.9098C25.4029 13.0103 25.3255 13.0805 25.2876 13.1205C25.2498 13.1615 25.2038 13.1993 25.1497 13.2339L25.0685 13.2874L25.0523 13.2955L25.0361 13.3036L25.0328 13.3085L25.028 13.3117L25.0231 13.315L25.0198 13.3198L25.0036 13.3279L24.9874 13.3361L24.9841 13.3409L24.9793 13.3442L24.9744 13.3474L24.9711 13.3523L24.9679 13.3571L24.963 13.3604L24.9582 13.3636L24.9549 13.3685H25.0361L25.4905 13.2712C25.7935 13.2064 26.083 13.128 26.3589 13.0362L26.7971 12.8903L26.8458 12.8741L26.8702 12.866L26.8864 12.8579L26.9026 12.8498L26.9188 12.8417L26.9351 12.8336L26.9675 12.8287L27 12.8255V12.8579L26.9919 12.8611L26.9838 12.866L26.9805 12.8709L26.9757 12.8741L26.9708 12.8774L26.9675 12.8822L26.9643 12.8871L26.9594 12.8903L26.9546 12.8936L26.9513 12.8984L26.9481 12.9033L26.9432 12.9065L26.9351 12.9227L26.927 12.9389L26.9221 12.9422C26.9199 12.9454 26.8512 13.0373 26.716 13.2177C26.5807 13.3993 26.5077 13.4911 26.4968 13.4933C26.486 13.4965 26.4709 13.5127 26.4514 13.5419C26.433 13.5721 26.3183 13.6926 26.1073 13.9033C25.8963 14.1141 25.6897 14.3015 25.4873 14.4658C25.2839 14.6311 25.1811 14.8342 25.1789 15.0752C25.1757 15.3151 25.1632 15.5863 25.1416 15.8889C25.1199 16.1914 25.0794 16.5183 25.0198 16.8695C24.9603 17.2207 24.8684 17.6178 24.7439 18.0608C24.6195 18.5038 24.468 18.9361 24.2894 19.3575C24.1109 19.7789 23.9243 20.1571 23.7295 20.4921C23.5347 20.827 23.3562 21.1107 23.1939 21.343C23.0316 21.5753 22.8666 21.7941 22.6988 21.9994C22.5311 22.2048 22.319 22.436 22.0626 22.6932C21.8051 22.9493 21.6644 23.0897 21.6406 23.1146C21.6157 23.1384 21.5097 23.227 21.3225 23.3804C21.1363 23.5349 20.9362 23.6894 20.7219 23.844C20.5088 23.9974 20.3129 24.1255 20.1344 24.2281C19.9558 24.3307 19.7405 24.448 19.4884 24.5798C19.2373 24.7127 18.9657 24.8359 18.6736 24.9494C18.3814 25.0628 18.073 25.1682 17.7484 25.2654C17.4238 25.3627 17.11 25.4383 16.807 25.4924C16.5041 25.5464 16.1605 25.5923 15.7764 25.6301L15.2002 25.6869V25.695H14.1452V25.6869L14.0072 25.6788C13.9152 25.6734 13.8395 25.6679 13.78 25.6625C13.7205 25.6571 13.4959 25.6274 13.1064 25.5734C12.7169 25.5194 12.4112 25.4653 12.1894 25.4113C11.9675 25.3573 11.6375 25.2546 11.1993 25.1034C10.761 24.9521 10.3861 24.7992 10.0745 24.6447C9.76394 24.4912 9.56917 24.394 9.49017 24.3529C9.41226 24.3129 9.32462 24.2632 9.22723 24.2038L9.08115 24.1146L9.07792 24.1098L9.07304 24.1065L9.06817 24.1033L9.06492 24.0984L9.04869 24.0903L9.03246 24.0822L9.02923 24.0774L9.02435 24.0741L9.01948 24.0709L9.01623 24.066L9.013 24.0612L9.00812 24.0579H9V24.0255L9.01623 24.0287L9.03246 24.0336L9.1055 24.0417C9.15419 24.0471 9.28675 24.0552 9.50316 24.066C9.71958 24.0768 9.9495 24.0768 10.193 24.066C10.4364 24.0552 10.6853 24.0309 10.9396 23.9931C11.1939 23.9553 11.4941 23.8904 11.8404 23.7986C12.1867 23.7067 12.5048 23.5976 12.7948 23.4712C13.0837 23.3437 13.2893 23.2486 13.4116 23.1859C13.5327 23.1243 13.7178 23.0098 13.9666 22.8423L14.3399 22.5911L14.3432 22.5862L14.3481 22.5829L14.3529 22.5797L14.3562 22.5748L14.3594 22.57L14.3643 22.5667L14.3692 22.5635L14.3724 22.5586L14.3886 22.5538L14.4049 22.5505L14.4081 22.5343L14.413 22.5181L14.4179 22.5149L14.4211 22.51L14.2913 22.5019C14.2047 22.4965 14.1208 22.4911 14.0397 22.4857C13.9585 22.4803 13.8314 22.456 13.6583 22.4128C13.4851 22.3695 13.2985 22.3047 13.0983 22.2183C12.8981 22.1318 12.7033 22.0292 12.514 21.9103C12.3246 21.7914 12.1877 21.6926 12.1033 21.6137C12.02 21.5359 11.9118 21.4257 11.7787 21.283C11.6467 21.1393 11.532 20.9918 11.4346 20.8405C11.3372 20.6893 11.2442 20.5147 11.1555 20.317L11.0207 20.022L11.0126 19.9977L11.0045 19.9734L10.9996 19.9572L10.9964 19.941L11.0207 19.9442L11.0451 19.9491L11.2236 19.9734C11.3427 19.9896 11.5293 19.995 11.7836 19.9896C12.0379 19.9842 12.2137 19.9734 12.3111 19.9572C12.4085 19.941 12.468 19.9302 12.4896 19.9248L12.5221 19.9167L12.5627 19.9086L12.6032 19.9005L12.6065 19.8956L12.6114 19.8924L12.6162 19.8891L12.6195 19.8842L12.587 19.8761L12.5546 19.868L12.5221 19.8599L12.4896 19.8518L12.4572 19.8437C12.4355 19.8383 12.3977 19.8275 12.3436 19.8113C12.2895 19.7951 12.1434 19.7357 11.9053 19.633C11.6673 19.5304 11.4779 19.4304 11.3372 19.3332C11.1962 19.2356 11.0618 19.129 10.9347 19.0139C10.8081 18.8972 10.6691 18.747 10.5176 18.5633C10.3661 18.3796 10.2308 18.1662 10.1118 17.923C9.99279 17.6799 9.90352 17.4476 9.844 17.2261C9.78472 17.0059 9.74561 16.7807 9.72716 16.5534L9.69793 16.213L9.71416 16.2163L9.73039 16.2211L9.74662 16.2293L9.76285 16.2374L9.77908 16.2455L9.79531 16.2536L10.0469 16.367C10.2146 16.4427 10.4229 16.5075 10.6718 16.5615C10.9207 16.6155 11.0694 16.6453 11.1181 16.6507L11.1912 16.6588H11.3372L11.334 16.6539L11.3291 16.6507L11.3243 16.6474L11.321 16.6426L11.3178 16.6377L11.3129 16.6345L11.308 16.6312L11.3048 16.6264L11.2885 16.6183L11.2723 16.6101L11.2691 16.6053L11.2642 16.602L11.2593 16.5988L11.2561 16.5939L11.2399 16.5858L11.2236 16.5777L11.2204 16.5729C11.2171 16.5707 11.1706 16.5361 11.0808 16.4691C10.9921 16.4011 10.899 16.313 10.8016 16.2049C10.7042 16.0969 10.6069 15.9834 10.5095 15.8646C10.4119 15.7454 10.325 15.618 10.2498 15.4837C10.174 15.3486 10.094 15.1768 10.0096 14.9682C9.92625 14.7608 9.86294 14.5517 9.81966 14.341C9.77639 14.1303 9.75204 13.9223 9.74662 13.7169C9.74121 13.5116 9.74662 13.3361 9.76285 13.1902C9.77908 13.0443 9.81154 12.8795 9.86023 12.6958C9.90893 12.5121 9.97927 12.3176 10.0712 12.1123L10.2092 11.8044L10.2173 11.78L10.2254 11.7557L10.2303 11.7525L10.2335 11.7476L10.2368 11.7428L10.2417 11.7395L10.2465 11.7428L10.2498 11.7476L10.253 11.7525L10.2579 11.7557L10.2628 11.759L10.266 11.7638L10.2693 11.7687L10.2741 11.7719L10.2822 11.7881L10.2904 11.8044L10.2952 11.8076L10.2985 11.8125L10.5176 12.0556C10.6637 12.2177 10.8368 12.3987 11.037 12.5986C11.2372 12.7985 11.3481 12.9022 11.3697 12.9098C11.3914 12.9184 11.4184 12.9433 11.4509 12.9843C11.4833 13.0243 11.5915 13.1199 11.7755 13.2712C11.9594 13.4225 12.2002 13.5981 12.4977 13.798C12.7953 13.9979 13.1253 14.1951 13.4878 14.3896C13.8503 14.5841 14.2399 14.7597 14.6564 14.9164C15.073 15.0731 15.3652 15.1757 15.5329 15.2243C15.7006 15.273 15.9874 15.3351 16.3931 15.4107C16.7989 15.4864 17.1046 15.535 17.3102 15.5566C17.5158 15.5782 17.6565 15.5906 17.7322 15.5939L17.8458 15.5971L17.8426 15.5728L17.8377 15.5485L17.8052 15.3459C17.7836 15.2108 17.7728 15.0217 17.7728 14.7786C17.7728 14.5355 17.7917 14.3113 17.8296 14.106C17.8675 13.9006 17.9243 13.6926 18 13.4819C18.0757 13.2712 18.1499 13.1021 18.2224 12.9746C18.296 12.8482 18.3923 12.7039 18.5113 12.5418C18.6303 12.3798 18.7845 12.2123 18.9739 12.0394C19.1632 11.8665 19.3796 11.7125 19.6231 11.5774C19.8665 11.4424 20.0911 11.3397 20.2967 11.2695C20.5023 11.1992 20.6754 11.1533 20.8161 11.1317C20.9567 11.1101 21.0271 11.0977 21.0271 11.0944Z" fill="white"/>
</svg>
